<?xml version="1.0" encoding="utf-8"?>
<!-- Generator: Adobe Illustrator 23.0.1, SVG Export Plug-In . SVG Version: 6.00 Build 0)  -->
<svg version="1.1" id="Capa_1" xmlns="http://www.w3.org/2000/svg" xmlns:xlink="http://www.w3.org/1999/xlink" x="0px" y="0px"
	 viewBox="0 0 600 80" style="enable-background:new 0 0 600 80;" xml:space="preserve">
<style type="text/css">
	.st0{fill:#FFFFFF;}
	.st1{fill:#1F2D36;}
	.st2{fill:#ECC142;}
	.st3{fill:#333331;}
	.st4{fill:#538291;}
	.st5{fill:#42505D;}
</style>
<g>
	<path class="st0" d="M91.04,64.17c0,0.58-0.47,1.05-1.05,1.05H15.76c-0.58,0-1.05-0.47-1.05-1.05V15.89c0-0.58,0.47-1.05,1.05-1.05
		H90c0.58,0,1.05,0.47,1.05,1.05V64.17z"/>
	<path class="st0" d="M194.34,64.17c0,0.58-0.47,1.05-1.05,1.05h-74.24c-0.58,0-1.05-0.47-1.05-1.05V15.89
		c0-0.58,0.47-1.05,1.05-1.05h74.24c0.58,0,1.05,0.47,1.05,1.05V64.17z"/>
	<path class="st0" d="M194.34,64.17c0,0.58-0.47,1.05-1.05,1.05h-74.24c-0.58,0-1.05-0.47-1.05-1.05V15.89
		c0-0.58,0.47-1.05,1.05-1.05h74.24c0.58,0,1.05,0.47,1.05,1.05V64.17z"/>
	<g>
		<path class="st1" d="M222.9,75.12c-2.44,0-3.51-1.07-3.51-3.51V60.2c0-2.44,1.07-3.51,3.51-3.51h26.25c1.66,0,2.54-1.27,2.54-2.83
			c0-2.24-0.88-3.12-2.54-3.32l-14.63-2.05c-9.17-1.37-15.12-5.27-15.12-16.2V22.05c0-11.12,7.51-17.17,20.2-17.17h27.32
			c2.44,0,3.51,1.08,3.51,3.51V20c0,2.44-1.07,3.51-3.51,3.51h-22.73c-1.66,0-2.64,1.17-2.64,2.93s0.97,2.93,2.64,3.12l14.54,1.95
			c9.17,1.37,15.21,5.27,15.21,16.2v10.25c0,11.12-7.61,17.17-20.19,17.17H222.9z"/>
		<path class="st1" d="M281.19,75.12c-2.44,0-3.51-1.07-3.51-3.51V8.39c0-2.44,1.07-3.51,3.51-3.51h29.85
			c17.76,0,23.02,7.71,23.02,19.03v12.49c0,11.32-5.26,19.03-23.02,19.03h-11.22v16.2c0,2.44-1.07,3.51-3.51,3.51H281.19z
			 M299.63,37.85h8.78c3.81,0,4.58-2.25,4.58-4.78V27.9c0-2.54-0.78-4.78-4.58-4.78h-8.78V37.85z"/>
		<path class="st1" d="M354.04,75.12H339.7c-2.44,0-3.51-1.07-3.51-3.51V45.85c0-3.9,1.17-8.78,3.81-15.61l8.49-22.15
			c0.78-2.24,2.34-3.22,4.98-3.22h26.25c2.54,0,4.1,0.98,4.88,3.22l8.49,22.15c2.64,6.83,3.81,11.71,3.81,15.61v25.76
			c0,2.44-1.07,3.51-3.51,3.51h-14.73c-2.64,0-3.81-1.07-3.81-3.51V57.95h-17.27v13.66C357.56,74.05,356.49,75.12,354.04,75.12z
			 M358.53,40.19h15.32l-4.59-14.83c-0.48-1.17-1.07-1.66-1.85-1.66h-2.44c-0.78,0-1.37,0.49-1.86,1.66L358.53,40.19z"/>
		<path class="st1" d="M424.36,75.12c-16.39,0-24-6.34-24-19.9V24.87c0-13.66,7.61-20,24-20h23.81c2.44,0,3.51,1.08,3.51,3.51v11.81
			c0,2.44-1.07,3.51-3.51,3.51h-19.61c-4.1,0-5.95,1.56-5.95,4.88V51.8c0,3.22,1.85,4.68,5.95,4.68h19.61
			c2.44,0,3.51,1.07,3.51,3.51v11.61c0,2.44-1.07,3.51-3.51,3.51H424.36z"/>
		<path class="st2" d="M458.86,75.12c-2.09,0-3.01-0.92-3.01-3.01V55.12c0-2.18,0.92-3.01,3.01-3.01h16.9
			c2.09,0,3.01,0.84,3.01,3.01v16.99c0,2.09-0.92,3.01-3.01,3.01H458.86z"/>
		<path class="st1" d="M482.16,71.61V60c0-2.44,1.07-3.51,3.51-3.51h9.66V23.7h-9.66c-2.44,0-3.51-1.07-3.51-3.51V8.39
			c0-2.44,1.07-3.51,3.51-3.51h41.57c2.44,0,3.51,1.08,3.51,3.51v11.81c0,2.44-1.07,3.51-3.51,3.51h-9.47v32.78h9.47
			c2.44,0,3.51,1.07,3.51,3.51v11.61c0,2.44-1.07,3.51-3.51,3.51h-41.57C483.23,75.12,482.16,74.05,482.16,71.61z"/>
		<path class="st1" d="M564.7,76.59c-24.39,0-30.35-8-30.35-19.9V23.41c0-11.9,5.96-20,30.35-20c24.4,0,30.25,8.1,30.25,20v33.27
			C594.95,68.58,589.1,76.59,564.7,76.59z M564.7,57.76c7.12,0,8.2-1.95,8.2-4.59V26.92c0-2.54-1.08-4.49-8.2-4.49
			c-7.02,0-8.19,1.95-8.19,4.49v26.25C556.51,55.81,557.68,57.76,564.7,57.76z"/>
	</g>
	<g>
		<path class="st2" d="M61.16,32.94c-5.04,2.16-11.05,2.16-16.34,0v-5.77h-9.61v11.29l2.4,1.44c4.8,2.64,10.09,4.08,15.37,4.08
			c5.28,0,10.57-1.44,15.37-4.08l2.4-1.44V27.18h-9.61V32.94z"/>
		<path class="st2" d="M164.46,27.18v5.77c-5.04,2.16-11.05,2.16-16.34,0v-5.77h-9.61v11.29l2.4,1.44
			c4.8,2.64,10.09,4.08,15.37,4.08s10.57-1.44,15.37-4.08l2.4-1.44V27.18H164.46z"/>
	</g>
	<g>
		<path class="st1" d="M5.05,9.11l0.13,62c0,2.23,1.81,4.03,4.04,4.03l87.7-0.01c2.23,0,4.04-1.81,4.03-4.04l-0.14-62.13
			C100.8,6.73,99,4.92,96.77,4.93L9.08,5.07C6.85,5.07,5.04,6.88,5.05,9.11z M91.04,64.17c0,0.58-0.47,1.05-1.05,1.05H15.76
			c-0.58,0-1.05-0.47-1.05-1.05V15.89c0-0.58,0.47-1.05,1.05-1.05H90c0.58,0,1.05,0.47,1.05,1.05V64.17z"/>
		<path class="st1" d="M200.06,4.93l-87.69,0.14c-2.23,0-4.03,1.81-4.03,4.04l0.13,62c0,2.23,1.81,4.03,4.03,4.03l87.69,0
			c2.23,0,4.04-1.81,4.04-4.04l-0.13-62.14C204.1,6.73,202.29,4.92,200.06,4.93z M194.34,64.17c0,0.58-0.47,1.05-1.05,1.05h-74.24
			c-0.58,0-1.05-0.47-1.05-1.05V15.89c0-0.58,0.47-1.05,1.05-1.05h74.24c0.58,0,1.05,0.47,1.05,1.05V64.17z"/>
	</g>
</g>
</svg>
