<?xml version="1.0" encoding="utf-8"?>
<!-- Generator: Adobe Illustrator 23.0.1, SVG Export Plug-In . SVG Version: 6.00 Build 0)  -->
<svg version="1.1" id="Capa_1" xmlns="http://www.w3.org/2000/svg" xmlns:xlink="http://www.w3.org/1999/xlink" x="0px" y="0px"
	 viewBox="0 0 211.4 80" style="enable-background:new 0 0 211.4 80;" xml:space="preserve">
<style type="text/css">
	.st0{fill:#FFFFFF;}
	.st1{fill:#ECC142;}
	.st2{fill:#1F2D36;}
</style>
<g>
	<path class="st0" d="M92.1,64.17c0,0.58-0.47,1.05-1.05,1.05H16.82c-0.58,0-1.05-0.47-1.05-1.05V15.89c0-0.58,0.47-1.05,1.05-1.05
		h74.24c0.58,0,1.05,0.47,1.05,1.05v48.28H92.1z"/>
	<path class="st0" d="M195.4,64.17c0,0.58-0.47,1.05-1.05,1.05h-74.24c-0.58,0-1.05-0.47-1.05-1.05V15.89
		c0-0.58,0.47-1.05,1.05-1.05h74.24c0.58,0,1.05,0.47,1.05,1.05V64.17z"/>
	<path class="st0" d="M195.4,64.17c0,0.58-0.47,1.05-1.05,1.05h-74.24c-0.58,0-1.05-0.47-1.05-1.05V15.89
		c0-0.58,0.47-1.05,1.05-1.05h74.24c0.58,0,1.05,0.47,1.05,1.05V64.17z"/>
	<g>
		<path class="st1" d="M62.22,32.94c-5.04,2.16-11.05,2.16-16.34,0v-5.77h-9.61v11.29l2.4,1.44c4.8,2.64,10.09,4.08,15.37,4.08
			s10.57-1.44,15.37-4.08l2.4-1.44V27.18H62.2v5.76H62.22z"/>
		<path class="st1" d="M165.52,27.18v5.77c-5.04,2.16-11.05,2.16-16.34,0v-5.77h-9.61v11.29l2.4,1.44
			c4.8,2.64,10.09,4.08,15.37,4.08s10.57-1.44,15.37-4.08l2.4-1.44V27.18H165.52z"/>
	</g>
	<g>
		<path class="st2" d="M6.11,9.11l0.13,62c0,2.23,1.81,4.03,4.04,4.03l87.7-0.01c2.23,0,4.04-1.81,4.03-4.04l-0.14-62.13
			c-0.01-2.23-1.81-4.04-4.04-4.03L10.14,5.07C7.91,5.07,6.1,6.88,6.11,9.11z M92.1,64.17c0,0.58-0.47,1.05-1.05,1.05H16.82
			c-0.58,0-1.05-0.47-1.05-1.05V15.89c0-0.58,0.47-1.05,1.05-1.05h74.24c0.58,0,1.05,0.47,1.05,1.05v48.28H92.1z"/>
		<path class="st2" d="M201.12,4.93l-87.69,0.14c-2.23,0-4.03,1.81-4.03,4.04l0.13,62c0,2.23,1.81,4.03,4.03,4.03h87.69
			c2.23,0,4.04-1.81,4.04-4.04l-0.13-62.14C205.16,6.73,203.35,4.92,201.12,4.93z M195.4,64.17c0,0.58-0.47,1.05-1.05,1.05h-74.24
			c-0.58,0-1.05-0.47-1.05-1.05V15.89c0-0.58,0.47-1.05,1.05-1.05h74.24c0.58,0,1.05,0.47,1.05,1.05V64.17z"/>
	</g>
</g>
</svg>
